# xmcd
#
# Track frame offsets: 
#        150
#        7910
#        30782
#        46142
#        64728
#        79629
#        97574
#        113843
#
# Disc length: 1772 seconds
#
# Revision: 0
# Processed by: cddbd v1.5.2PL0 Copyright (c) Steve Scherf et al.
# Submitted via: ExactAudioCopy v1.1
#
DISCID=4406ea08
DTITLE=無力P feat.柿チョコ - Odysses
DYEAR=2016
DGENRE=Vocal
TTITLE0=Odyssey
TTITLE1=If
TTITLE2=Aspirin
TTITLE3=Sacred Secret
TTITLE4=Hopeful Wings
TTITLE5=Brella
TTITLE6=hypnoSpirA
TTITLE7=Vanity
EXTD=
EXTT0=
EXTT1=
EXTT2=
EXTT3=
EXTT4=
EXTT5=
EXTT6=
EXTT7=
PLAYORDER=
